<svg width="32" height="32" xmlns="http://www.w3.org/2000/svg">

 <g>
  <title>background</title>
  <rect fill="none" id="canvas_background" height="402" width="582" y="-1" x="-1"/>
 </g>
 <g>
  <title>Layer 1</title>
  <path id="svg_3" fill="#ffffff" d="m29.5,27l-6,0c-0.276,0 -0.5,-0.224 -0.5,-0.5l0,-5c0,-0.276 0.224,-0.5 0.5,-0.5l6,0c0.276,0 0.5,0.224 0.5,0.5l0,5c0,0.276 -0.224,0.5 -0.5,0.5zm-5.5,-1l5,0l0,-4l-5,0l0,4z"/>
  <path id="svg_5" fill="#ffffff" d="m18.5,27l-6,0c-0.276,0 -0.5,-0.224 -0.5,-0.5l0,-5c0,-0.276 0.224,-0.5 0.5,-0.5l6,0c0.276,0 0.5,0.224 0.5,0.5l0,5c0,0.276 -0.224,0.5 -0.5,0.5zm-5.5,-1l5,0l0,-4l-5,0l0,4z"/>
  <path id="svg_7" fill="#ffffff" d="m29.5,29l-6,0c-0.276,0 -0.5,-0.224 -0.5,-0.5s0.224,-0.5 0.5,-0.5l6,0c0.276,0 0.5,0.224 0.5,0.5s-0.224,0.5 -0.5,0.5z"/>
  <path id="svg_9" fill="#ffffff" d="m18.5,29l-6,0c-0.276,0 -0.5,-0.224 -0.5,-0.5s0.224,-0.5 0.5,-0.5l6,0c0.276,0 0.5,0.224 0.5,0.5s-0.224,0.5 -0.5,0.5z"/>
  <path id="svg_11" fill="#ffffff" d="m7.5,29l-6,0c-0.276,0 -0.5,-0.224 -0.5,-0.5s0.224,-0.5 0.5,-0.5l6,0c0.276,0 0.5,0.224 0.5,0.5s-0.224,0.5 -0.5,0.5z"/>
  <path id="svg_13" fill="#ffffff" d="m7.5,27l-6,0c-0.276,0 -0.5,-0.224 -0.5,-0.5l0,-5c0,-0.276 0.224,-0.5 0.5,-0.5l6,0c0.276,0 0.5,0.224 0.5,0.5l0,5c0,0.276 -0.224,0.5 -0.5,0.5zm-5.5,-1l5,0l0,-4l-5,0l0,4z"/>
  <path id="svg_15" fill="#ffffff" d="m26.5,12l-22,0c-0.276,0 -0.5,-0.224 -0.5,-0.5l0,-8c0,-0.276 0.224,-0.5 0.5,-0.5l22,0c0.276,0 0.5,0.224 0.5,0.5l0,8c0,0.276 -0.224,0.5 -0.5,0.5zm-21.5,-1l21,0l0,-7l-21,0l0,7z"/>
  <path id="svg_16" fill="#ffffff" d="m15.5,15c-0.276,0 -0.5,-0.224 -0.5,-0.5l0,-3c0,-0.276 0.224,-0.5 0.5,-0.5s0.5,0.224 0.5,0.5l0,3c0,0.276 -0.224,0.5 -0.5,0.5z"/>
  <path id="svg_17" fill="#ffffff" d="m15.5,20c-0.276,0 -0.5,-0.224 -0.5,-0.5l0,-3c0,-0.276 0.224,-0.5 0.5,-0.5s0.5,0.224 0.5,0.5l0,3c0,0.276 -0.224,0.5 -0.5,0.5z"/>
  <path id="svg_18" fill="#ffffff" d="m26.5,20c-0.276,0 -0.5,-0.224 -0.5,-0.5l0,-2.5l-21,0l0,2.5c0,0.276 -0.224,0.5 -0.5,0.5s-0.5,-0.224 -0.5,-0.5l0,-3c0,-0.276 0.224,-0.5 0.5,-0.5l22,0c0.276,0 0.5,0.224 0.5,0.5l0,3c0,0.276 -0.224,0.5 -0.5,0.5z"/>
  <path id="svg_20" fill="#ffffff" d="m22.5,9l-14,0c-0.276,0 -0.5,-0.224 -0.5,-0.5s0.224,-0.5 0.5,-0.5l14,0c0.276,0 0.5,0.224 0.5,0.5s-0.224,0.5 -0.5,0.5z"/>
  <path id="svg_22" fill="#ffffff" d="m22.5,7l-14,0c-0.276,0 -0.5,-0.224 -0.5,-0.5s0.224,-0.5 0.5,-0.5l14,0c0.276,0 0.5,0.224 0.5,0.5s-0.224,0.5 -0.5,0.5z"/>
 </g>
</svg>